<svg xmlns="http://www.w3.org/2000/svg" width="125" height="125" fill="none" viewBox="0 0 125 125"
    class="text-contrast-high relative h-6 w-auto text-zinc-50" role="img"
    aria-label="Xata logo wordmark">
    <path fill="url(#paint0_radial_47_320)"
        d="M8.674 11.22c2.015-2.681 5.902-2.664 8.277-.295L43.307 37.2a43.27 43.27 0 0 1 12.722 30.588 43.27 43.27 0 0 1-10.898 28.759c-.937 1.056-2.561 1.053-3.56.056l-28.85-28.76A43.27 43.27 0 0 1 0 37.254a43.26 43.26 0 0 1 8.674-26.033m90.304-.473c2.376-2.369 6.263-2.385 8.278.297a43.27 43.27 0 0 1 8.674 26.034 43.27 43.27 0 0 1-12.722 30.589l-28.849 28.76c-1 .996-2.623.999-3.56-.057A43.27 43.27 0 0 1 59.9 67.61a43.27 43.27 0 0 1 12.722-30.589z"></path>
    <path fill="url(#paint1_linear_47_320)"
        d="M22.174 119.686c-2.37 2.374-6.247 2.397-8.366-.204-5.87-7.202-9.775-15.508-11.052-23.678-1.395-8.927.45-17.035 5.143-22.902.882-1.102 2.512-1.096 3.512-.1L38.449 99.76a2.56 2.56 0 0 1 .004 3.62z"></path>
    <path fill="url(#paint2_linear_47_320)"
        d="M102.123 119.304c-2.119 2.601-5.996 2.578-8.366.204l-16.28-16.307c-.999-1-.997-2.622.005-3.62l27.038-26.957c1-.996 2.63-1.002 3.512.1 4.692 5.867 6.537 13.975 5.142 22.902-1.276 8.17-5.182 16.476-11.051 23.678"></path>
    <defs>
        <linearGradient id="paint1_linear_47_320" x1="51.179" x2="15.053" y1="97.308" y2="131.929"
            gradientUnits="userSpaceOnUse">
            <stop offset="0.15" stop-color="#AA95FF"></stop>
            <stop offset="0.65" stop-color="#9176FF"></stop>
            <stop offset="0.93" stop-color="#7F62F3"></stop>
        </linearGradient>
        <linearGradient id="paint2_linear_47_320" x1="66.232" x2="102.358" y1="96.304" y2="130.925"
            gradientUnits="userSpaceOnUse">
            <stop offset="0.148" stop-color="#AA95FF"></stop>
            <stop offset="0.65" stop-color="#9176FF"></stop>
            <stop offset="0.932" stop-color="#7F62F3"></stop>
        </linearGradient>
        <radialGradient id="paint0_radial_47_320" cx="0" cy="0" r="1"
            gradientTransform="matrix(16.79714 108.81317 -101.12523 15.61038 58.203 62.687)"
            gradientUnits="userSpaceOnUse">
            <stop stop-color="#AA95FF"></stop>
            <stop offset="0.546" stop-color="#9176FF"></stop>
            <stop offset="0.696" stop-color="#7F62F3"></stop>
        </radialGradient>
    </defs>
</svg>